<svg width="48" height="48" viewBox="0 0 48 48" fill="none" xmlns="http://www.w3.org/2000/svg">
<g clip-path="url(#clip0)">
<path d="M24 48.0001C37.2548 48.0001 48 37.2549 48 24C48 10.7452 37.2548 3.8147e-05 24 3.8147e-05C10.7452 3.8147e-05 0 10.7452 0 24C0 37.2549 10.7452 48.0001 24 48.0001Z" fill="#151965"/>
<path d="M31.8037 7.36674H26.4871C23.3321 7.36674 19.8228 8.69371 19.8228 13.2671C19.8382 14.8606 19.8228 16.3868 19.8228 18.1043H16.1729V23.9125H19.9358V40.6332H26.8503V23.8021H31.4141L31.827 18.088H26.7311C26.7311 18.088 26.7425 15.5461 26.7311 14.808C26.7311 13.0007 28.6117 13.1042 28.7248 13.1042C29.6197 13.1042 31.3597 13.1068 31.8063 13.1042V7.36674H31.8037Z" fill="white"/>
</g>
<defs>
<clipPath id="clip0">
<rect width="48" height="48" fill="white"/>
</clipPath>
</defs>
</svg>
