<svg width="327" height="327" viewBox="0 0 327 327" fill="none" xmlns="http://www.w3.org/2000/svg">
<g filter="url(#filter0_d)">
<path d="M73.0832 45.3373L73.0855 45.3371C79.4828 44.6147 84.8343 45.4573 90.0634 48.0047L90.0675 48.0067C104.745 55.2667 110.77 72.5299 103.601 87.0162C92.7949 108.996 61.827 108.996 51.0213 87.0162C43.8519 72.5298 49.8772 55.2667 64.5545 48.0067L64.5576 48.0052C67.6355 46.5002 70.4391 45.644 73.0832 45.3373ZM84.1032 59.1006L84.1032 59.1007L84.0927 59.0958C82.3369 58.2748 80.4474 57.9271 77.311 57.9271C74.7704 57.9271 72.7221 58.2439 70.9008 58.9399C69.0834 59.6346 67.45 60.723 65.7601 62.3225C62.4284 65.5343 60.9041 69.1698 60.9041 74.2913C60.9041 76.8251 61.2216 78.8677 61.9191 80.6837C62.6153 82.4961 63.7061 84.1252 65.3098 85.811C68.5296 89.1344 72.175 90.6556 77.311 90.6556C82.4469 90.6556 86.0924 89.1344 89.3122 85.811C90.9158 84.1252 92.0067 82.4961 92.7028 80.6837C93.4004 78.8677 93.7179 76.8251 93.7179 74.2913C93.7179 70.9387 93.4319 69.4095 92.3741 67.2437L92.374 67.2437L92.371 67.2372C90.7305 63.7952 87.488 60.62 84.1032 59.1006Z" fill="#A57736" stroke="black" stroke-width="1.5"/>
<path d="M158.868 45.3371L158.868 45.3372C156.224 45.6439 153.42 46.5 150.342 48.0051L150.338 48.0071C135.724 55.2655 129.635 72.5845 136.746 86.9555C136.746 86.9563 136.747 86.9571 136.747 86.9579L138.64 90.8397L115.118 114.303L91.5871 137.776L88.7486 136.461L88.7448 136.46C81.5468 133.174 72.0811 133.425 64.5543 137.178C49.8756 144.379 43.8527 161.643 51.0212 176.128C58.1825 190.716 75.3084 196.716 89.939 189.752C104.205 182.969 110.649 165.534 104.022 151.342L104.02 151.338C103.508 150.257 102.922 149.148 102.395 148.231C101.884 147.343 101.39 146.568 101.062 146.203L158.868 45.3371ZM158.868 45.3371C165.143 44.6149 170.616 45.455 175.615 47.9474C183.122 51.6315 188.468 57.6248 191.078 65.4311C191.079 65.4332 191.08 65.4353 191.08 65.4374L191.964 67.9348H205.988H220.011L220.894 65.4402C220.895 65.4375 220.896 65.4348 220.897 65.4322C222.417 60.8276 225.74 55.7635 229.089 52.7264L229.091 52.7252C238.01 44.6754 251 42.7918 261.576 48.006C276.314 55.2657 282.34 72.5298 275.169 87.017C264.363 108.937 233.517 108.995 222.592 87.0779C221.992 85.8822 221.437 84.6545 221.029 83.6456C220.826 83.1418 220.656 82.6842 220.535 82.308C220.428 81.9737 220.328 81.6085 220.324 81.3289C220.145 81.2586 219.736 81.1693 218.844 81.1029C216.898 80.958 213.164 80.9427 205.988 80.9427C198.932 80.9427 195.195 80.9579 193.217 81.0958C192.292 81.1602 191.851 81.2476 191.65 81.323C191.636 81.5894 191.547 81.9195 191.452 82.2253C191.339 82.591 191.178 83.0351 190.986 83.5267C190.602 84.5117 190.078 85.7217 189.511 86.9413L189.506 86.951C182.584 101.307 165.341 107.483 150.832 100.821L150.83 100.82M158.868 45.3371L150.83 100.82M150.83 100.82L147.222 99.1513L123.809 122.506C112.562 133.726 106.661 139.642 103.679 142.88C102.174 144.515 101.47 145.409 101.183 145.93C101.105 146.072 101.074 146.158 101.062 146.202L150.83 100.82ZM170.172 59.2722L170.163 59.2679C167.991 58.2124 166.457 57.927 163.095 57.927C160.555 57.927 158.507 58.2438 156.685 58.9398C154.868 59.6344 153.234 60.7229 151.545 62.3225C148.214 65.5335 146.689 69.1681 146.689 74.2879C146.718 77.8156 147.45 80.7621 148.87 83.1763C150.288 85.5871 152.42 87.5147 155.325 88.9639C159.868 91.2296 165.836 91.3885 170.167 89.3128L170.172 89.3103C182.908 83.3248 182.908 65.2576 170.172 59.2722ZM255.672 59.1005L255.67 59.0993C253.848 58.2732 251.332 57.8539 248.763 57.8826C246.194 57.9114 243.662 58.3867 241.807 59.2704L241.805 59.2717C231.502 64.1279 229.01 77.5641 236.879 85.8109C240.099 89.1343 243.744 90.6555 248.88 90.6555C254.016 90.6555 257.661 89.1342 260.881 85.8108C262.485 84.125 263.576 82.496 264.272 80.6836C264.969 78.8675 265.287 76.825 265.287 74.2912C265.287 70.9386 265.001 69.4094 263.943 67.2435L263.94 67.237C262.3 63.7951 259.057 60.6199 255.672 59.1005ZM93.7179 163.403C93.7179 156.344 90.6631 151.317 84.9807 148.621C83.5228 147.952 82.5036 147.567 81.4177 147.341C80.3261 147.113 79.1307 147.039 77.311 147.039C74.7704 147.039 72.7221 147.356 70.9009 148.052C69.0833 148.747 67.45 149.835 65.76 151.435C62.4284 154.646 60.9041 158.282 60.9041 163.403C60.9041 165.937 61.2216 167.98 61.9191 169.796C62.6153 171.608 63.7061 173.237 65.3098 174.923C68.5296 178.246 72.175 179.768 77.311 179.768C82.4469 179.768 86.0924 178.246 89.3122 174.923C90.9158 173.237 92.0067 171.608 92.7028 169.796C93.4004 167.98 93.7179 165.937 93.7179 163.403Z" fill="#A57736" stroke="black" stroke-width="1.5"/>
<path d="M158.868 134.449L158.87 134.449C165.267 133.727 170.619 134.569 175.848 137.117L175.852 137.119C194.057 146.138 198.009 169.824 183.682 184.175L183.681 184.176C172.384 195.445 153.807 195.445 142.51 184.176L142.509 184.175C128.182 169.824 132.133 146.138 150.338 137.119L150.342 137.117C153.42 135.612 156.223 134.756 158.868 134.449ZM169.888 148.213L169.888 148.213L169.877 148.208C168.121 147.387 166.232 147.039 163.095 147.039C160.555 147.039 158.506 147.356 156.685 148.052C154.868 148.747 153.235 149.835 151.545 151.435C148.213 154.646 146.688 158.282 146.688 163.403C146.688 165.937 147.006 167.98 147.704 169.796C148.4 171.608 149.491 173.237 151.094 174.923C154.314 178.247 157.959 179.768 163.095 179.768C168.231 179.768 171.877 178.247 175.097 174.923C176.7 173.237 177.791 171.608 178.487 169.796C179.185 167.98 179.502 165.937 179.502 163.403C179.502 160.051 179.216 158.522 178.158 156.356L178.158 156.356L178.155 156.349C176.515 152.907 173.272 149.732 169.888 148.213Z" fill="#A57736" stroke="black" stroke-width="1.5"/>
<path d="M244.652 134.449L244.654 134.449C251.052 133.727 256.403 134.569 261.632 137.117L261.636 137.119C276.314 144.379 282.339 161.643 275.169 176.129C269.647 187.326 257.93 193.809 245.605 192.476L245.604 192.476L242.707 192.161L216.871 217.933L191.153 243.587L191.619 245.217C191.62 245.218 191.62 245.22 191.621 245.222C192.129 246.905 192.332 249.834 192.287 252.726C192.243 255.627 191.947 258.645 191.384 260.517C186.343 277.898 166.499 286.678 150.342 278.743C142.883 275.113 137.177 268.458 134.867 260.697C134.867 260.697 134.867 260.697 134.866 260.696L134.318 258.872H120.203H106.089L105.54 260.697C105.54 260.697 105.54 260.698 105.54 260.698C104.201 265.187 101.473 269.721 98.0131 273.113C83.744 287.404 59.943 283.401 51.0213 265.24C43.8525 250.755 49.876 233.491 64.5556 226.289C79.0161 219.138 96.3198 225.147 103.599 239.728C104.198 240.924 104.754 242.152 105.162 243.161C105.365 243.665 105.535 244.123 105.656 244.499C105.763 244.833 105.863 245.198 105.867 245.478C106.046 245.548 106.455 245.637 107.347 245.704C109.293 245.849 113.027 245.864 120.203 245.864C127.379 245.864 131.113 245.849 133.06 245.704C133.951 245.637 134.361 245.548 134.54 245.478C134.544 244.723 134.875 243.694 135.336 242.61C135.815 241.486 136.484 240.194 137.253 238.88C138.786 236.262 140.761 233.488 142.51 231.743C153.262 221.017 171.165 220.473 182.584 230.591L182.591 230.597L184.725 232.536L207.706 209.613L207.706 209.612L230.671 186.646L228.05 183.932C228.05 183.932 228.049 183.932 228.049 183.932C213.968 169.46 218.04 146.078 236.123 137.119L236.127 137.117C239.204 135.612 242.008 134.756 244.652 134.449ZM255.672 148.213L255.662 148.208C253.906 147.387 252.016 147.039 248.88 147.039C246.339 147.039 244.291 147.356 242.47 148.052C240.652 148.747 239.019 149.835 237.329 151.435C233.997 154.646 232.473 158.282 232.473 163.403C232.473 166.195 232.862 168.415 233.739 170.379C234.615 172.342 236.003 174.104 238.078 175.943L238.082 175.947C239.851 177.538 241.228 178.468 242.824 179.019C244.433 179.575 246.328 179.768 249.176 179.768C255.804 179.768 261.394 176.162 264.112 170.175L264.112 170.174C264.94 168.357 265.36 165.849 265.331 163.286C265.303 160.725 264.826 158.2 263.941 156.35L263.94 156.349C262.3 152.907 259.057 149.732 255.672 148.213ZM84.3864 237.496L84.3864 237.496L84.3784 237.492C82.2064 236.437 80.6726 236.151 77.311 236.151C74.7704 236.151 72.7221 236.468 70.9008 237.164C69.0834 237.859 67.45 238.947 65.7601 240.547C62.4284 243.758 60.9041 247.394 60.9041 252.516C60.9041 255.049 61.2216 257.092 61.9191 258.908C62.6152 260.72 63.7061 262.349 65.3098 264.035C68.5296 267.359 72.175 268.88 77.311 268.88C82.4472 268.88 86.0927 267.358 89.3126 264.035C97.1812 255.788 94.6889 242.352 84.3864 237.496ZM170.173 237.497L170.172 237.496C168.225 236.581 165.678 236.107 163.095 236.107C160.512 236.107 157.965 236.581 156.019 237.496C145.718 242.353 143.225 255.788 151.094 264.034C154.314 267.358 157.959 268.88 163.095 268.88C166.441 268.88 167.986 268.54 170.173 267.534C173.623 265.897 176.803 262.664 178.326 259.29C179.008 257.766 179.415 255.4 179.48 252.916C179.546 250.438 179.267 247.957 178.658 246.215C178.114 244.698 176.917 242.943 175.365 241.337C173.816 239.735 171.966 238.335 170.173 237.497ZM155.7 236.818C159.842 234.87 166.349 234.87 170.491 236.818L150.553 264.555C142.33 255.938 144.933 241.893 155.7 236.818Z" fill="#A57736" stroke="black" stroke-width="1.5"/>
<path d="M244.652 223.561L244.654 223.561C251.052 222.839 256.403 223.681 261.632 226.229L261.637 226.231C279.842 235.25 283.793 258.936 269.467 273.287L269.465 273.288C258.169 284.557 239.591 284.557 228.294 273.288L228.293 273.287C213.967 258.936 217.918 235.25 236.123 226.231L236.127 226.229C239.204 224.724 242.008 223.868 244.652 223.561ZM255.672 237.325L255.672 237.325L255.662 237.32C253.906 236.499 252.016 236.151 248.88 236.151C246.339 236.151 244.291 236.468 242.47 237.164C240.652 237.859 239.019 238.947 237.329 240.547C233.997 243.758 232.473 247.394 232.473 252.515C232.473 255.049 232.791 257.092 233.488 258.908C234.184 260.72 235.275 262.349 236.879 264.035C240.099 267.359 243.744 268.88 248.88 268.88C254.016 268.88 257.661 267.359 260.881 264.035C262.485 262.349 263.576 260.72 264.272 258.908C264.969 257.092 265.287 255.049 265.287 252.515C265.287 249.163 265.001 247.634 263.943 245.468L263.943 245.468L263.94 245.461C262.3 242.019 259.057 238.844 255.672 237.325Z" fill="#A57736" stroke="black" stroke-width="1.5"/>
</g>
<defs>
<filter id="filter0_d" x="39.2509" y="36.3351" width="247.689" height="254.165" filterUnits="userSpaceOnUse" color-interpolation-filters="sRGB">
<feFlood flood-opacity="0" result="BackgroundImageFix"/>
<feColorMatrix in="SourceAlpha" type="matrix" values="0 0 0 0 0 0 0 0 0 0 0 0 0 0 0 0 0 0 127 0" result="hardAlpha"/>
<feOffset/>
<feGaussianBlur stdDeviation="4"/>
<feComposite in2="hardAlpha" operator="out"/>
<feColorMatrix type="matrix" values="0 0 0 0 1 0 0 0 0 1 0 0 0 0 1 0 0 0 0.25 0"/>
<feBlend mode="normal" in2="BackgroundImageFix" result="effect1_dropShadow"/>
<feBlend mode="normal" in="SourceGraphic" in2="effect1_dropShadow" result="shape"/>
</filter>
</defs>
</svg>
