<svg width="327" height="327" viewBox="0 0 327 327" fill="none" xmlns="http://www.w3.org/2000/svg">
<rect width="327" height="327" rx="163.5" fill="white"/>
<path d="M72.4049 45.0844C69.8393 45.382 67.0947 46.2152 64.0518 47.7031C49.6129 54.8451 43.7061 71.8073 50.7466 86.0318C61.3669 107.636 91.796 107.636 102.416 86.0318C109.457 71.8073 103.55 54.8451 89.1111 47.7031C83.9799 45.2034 78.7294 44.3702 72.4049 45.0844ZM83.7412 57.5234C87.3211 59.1303 90.722 62.4632 92.4523 66.0938C93.5859 68.4149 93.8843 70.0814 93.8843 73.5333C93.8843 78.7708 92.5716 82.1632 89.2304 85.6747C85.8295 89.1862 81.9513 90.7931 76.5814 90.7931C71.2116 90.7931 67.3334 89.1862 63.9325 85.6747C60.5913 82.1632 59.2786 78.7708 59.2786 73.5333C59.2786 68.1768 60.8896 64.3083 64.4098 60.9158C67.93 57.5829 71.3309 56.2735 76.5814 56.2735C79.8033 56.2735 81.832 56.6306 83.7412 57.5234Z" fill="#AA7933"/>
<path d="M158.919 45.0844C156.353 45.3819 153.609 46.2152 150.566 47.7031C136.187 54.8451 130.22 71.8668 137.201 85.9722L139.349 90.3764L115.244 114.421L91.1397 138.466L87.7984 136.918C80.758 133.704 71.4503 133.943 64.0518 137.633C49.6129 144.715 43.7061 161.677 50.7466 175.902C57.787 190.245 74.6125 196.137 88.9917 189.293C103.013 182.627 109.337 165.486 102.834 151.559C101.82 149.417 100.507 147.155 99.9701 146.56C99.0751 145.548 100.268 144.239 122.941 121.623L146.926 97.697L151.043 99.6015C165.303 106.148 182.248 100.078 189.05 85.9722C190.183 83.532 191.138 81.1514 191.138 80.5562C191.138 79.5444 192.152 79.4849 206.353 79.4849C220.791 79.4849 221.567 79.5444 221.567 80.6157C221.567 81.2109 222.581 83.7106 223.775 86.0913C234.514 107.636 264.824 107.577 275.445 86.0317C282.485 71.8073 276.578 54.8451 262.08 47.7031C251.698 42.5847 238.93 44.4297 230.159 52.3454C226.877 55.3212 223.596 60.3206 222.104 64.8438L221.03 67.8792H206.353H191.675L190.601 64.8438C188.035 57.1662 182.785 51.2741 175.387 47.6436C170.494 45.2034 165.124 44.3701 158.919 45.0844ZM170.554 57.7019C183.978 64.0106 183.978 83.0559 170.554 89.3647C165.959 91.5668 159.695 91.3882 154.921 89.0076C148.836 85.9722 145.852 80.8538 145.793 73.5333C145.793 68.1768 147.404 64.3082 150.924 60.9158C154.444 57.5828 157.845 56.2735 163.096 56.2735C166.556 56.2735 168.227 56.571 170.554 57.7019ZM256.769 57.5233C260.349 59.1302 263.75 62.4632 265.48 66.0937C266.614 68.4148 266.912 70.0813 266.912 73.5333C266.912 78.7707 265.6 82.1632 262.259 85.6746C258.858 89.1861 254.979 90.7931 249.61 90.7931C244.24 90.7931 240.362 89.1861 236.961 85.6746C228.667 76.9852 231.292 62.8203 242.152 57.7019C246.149 55.7973 252.832 55.7378 256.769 57.5233ZM84.6362 147.81C90.6624 150.667 93.8843 156.023 93.8843 163.403C93.8843 168.641 92.5716 172.033 89.2304 175.545C85.8295 179.056 81.9513 180.663 76.5814 180.663C71.2116 180.663 67.3334 179.056 63.9325 175.545C60.5913 172.033 59.2786 168.641 59.2786 163.403C59.2786 158.047 60.8896 154.178 64.4098 150.786C67.93 147.453 71.3309 146.143 76.5814 146.143C80.2807 146.143 81.653 146.441 84.6362 147.81Z" fill="#AA7933"/>
<path d="M158.919 134.954C156.353 135.252 153.609 136.085 150.566 137.573C132.666 146.441 128.788 169.712 142.869 183.817C153.967 194.888 172.224 194.888 183.322 183.817C197.403 169.712 193.525 146.441 175.625 137.573C170.494 135.073 165.243 134.24 158.919 134.954ZM170.255 147.393C173.835 149 177.236 152.333 178.966 155.964C180.1 158.285 180.398 159.951 180.398 163.403C180.398 168.641 179.086 172.033 175.744 175.545C172.344 179.056 168.465 180.663 163.096 180.663C157.726 180.663 153.847 179.056 150.447 175.545C147.105 172.033 145.793 168.641 145.793 163.403C145.793 158.047 147.404 154.178 150.924 150.786C154.444 147.453 157.845 146.144 163.096 146.144C166.317 146.144 168.346 146.501 170.255 147.393Z" fill="#AA7933"/>
<path d="M245.433 134.954C242.867 135.252 240.123 136.085 237.08 137.573C219.3 146.382 215.302 169.355 229.145 183.579L232.307 186.853L208.62 210.54L184.933 234.168L182.248 231.728C171.031 221.789 153.43 222.325 142.869 232.859C139.468 236.252 135.053 243.81 135.053 246.191C135.053 247.262 134.277 247.322 119.838 247.322C105.4 247.322 104.624 247.262 104.624 246.191C104.624 245.596 103.61 243.096 102.416 240.715C95.2565 226.372 78.2521 220.48 64.0518 227.503C49.6129 234.585 43.7061 251.547 50.7466 265.772C59.5173 283.627 82.9059 287.555 96.9272 273.509C100.328 270.176 103.013 265.712 104.326 261.308L105.042 258.927H119.838H134.635L135.351 261.308C137.619 268.926 143.227 275.473 150.566 279.044C166.437 286.841 185.947 278.211 190.899 261.129C191.973 257.558 192.093 249.286 191.138 246.131L190.541 244.048L216.794 217.861L243.106 191.614L246.388 191.971C258.5 193.281 270.015 186.912 275.444 175.902C282.485 161.677 276.578 144.715 262.139 137.573C257.008 135.073 251.758 134.24 245.433 134.954ZM256.769 147.393C260.349 149 263.75 152.333 265.48 155.964C267.39 159.951 267.449 166.617 265.659 170.545C262.796 176.854 256.889 180.663 249.908 180.663C244.12 180.663 241.853 179.889 238.214 176.616C233.918 172.807 232.307 169.176 232.307 163.403C232.307 158.047 233.918 154.178 237.438 150.786C240.958 147.453 244.359 146.143 249.61 146.143C252.831 146.143 254.86 146.501 256.769 147.393ZM84.0396 237.442C94.8986 242.56 97.5238 256.725 89.2304 265.415C85.8295 268.926 81.9513 270.533 76.5814 270.533C71.2116 270.533 67.3334 268.926 63.9325 265.415C60.5913 261.903 59.2786 258.511 59.2786 253.273C59.2786 247.917 60.8896 244.048 64.4098 240.656C67.93 237.323 71.3309 236.013 76.5814 236.013C80.042 236.013 81.7126 236.311 84.0396 237.442ZM170.554 237.442C174.372 239.227 178.31 243.334 179.503 246.667C180.816 250.416 180.637 257.082 179.145 260.415C177.534 263.986 174.193 267.379 170.554 269.105C168.227 270.176 166.556 270.533 163.096 270.533C157.726 270.533 153.847 268.926 150.447 265.415C142.153 256.725 144.778 242.56 155.637 237.442C159.814 235.478 166.377 235.478 170.554 237.442Z" fill="#AA7933"/>
<path d="M245.433 224.824C242.867 225.122 240.123 225.955 237.08 227.443C219.18 236.311 215.302 259.582 229.383 273.687C240.481 284.758 258.738 284.758 269.836 273.687C283.917 259.582 280.039 236.311 262.139 227.443C257.008 224.943 251.757 224.11 245.433 224.824ZM256.769 237.263C260.349 238.87 263.75 242.203 265.48 245.834C266.614 248.155 266.912 249.821 266.912 253.273C266.912 258.511 265.6 261.903 262.258 265.415C258.858 268.926 254.979 270.533 249.61 270.533C244.24 270.533 240.361 268.926 236.961 265.415C233.619 261.903 232.307 258.511 232.307 253.273C232.307 247.917 233.918 244.048 237.438 240.656C240.958 237.323 244.359 236.013 249.61 236.013C252.831 236.013 254.86 236.371 256.769 237.263Z" fill="#AA7933"/>
</svg>
