<svg width="48" height="48" viewBox="0 0 48 48" fill="none" xmlns="http://www.w3.org/2000/svg">
<path d="M23.9994 0C10.7454 0 0 10.7455 0 23.9996C0 37.2541 10.745 48 23.9994 48C37.2542 48 48 37.2541 48 23.9996C47.9996 10.7455 37.2542 0 23.9994 0ZM14.0408 10.8244C15.6733 10.8244 16.9975 12.032 16.9975 13.5217C16.9975 15.0115 15.6733 16.2191 14.0408 16.2191C12.4074 16.2191 11.084 15.0115 11.084 13.5217C11.084 12.032 12.4074 10.8244 14.0408 10.8244ZM17.0199 33.8952H11.1778V18.6509H17.0199V33.8952ZM36.8716 33.8952H31.0013V25.5126C31.0013 24.5557 30.8237 23.8784 30.4697 23.4809C30.1153 23.0841 29.6178 22.8849 28.9774 22.8849C28.2691 22.8849 27.6943 23.153 27.2545 23.6892C26.8142 24.2253 26.5946 25.1868 26.5946 26.5745V33.8952H20.7522V18.6509H26.1921V21.1337C27.0051 20.1199 27.8284 19.395 28.6608 18.9592C29.4933 18.5239 30.507 18.3065 31.7034 18.3065C33.321 18.3065 34.5863 18.787 35.5005 19.7489C36.4138 20.7104 36.8711 22.1961 36.8711 24.2058V33.8952H36.8716Z" fill="#151965"/>
</svg>
