<svg width="1063" height="255" viewBox="0 0 1063 255" fill="none" xmlns="http://www.w3.org/2000/svg">
<path d="M592.893 2.31112C585.025 4.12778 582.181 14.725 587.93 20.2961C590.472 22.7789 592.53 23.5056 596.645 23.5056C603.181 23.5056 607.236 19.9328 607.66 13.6956C607.963 9.45667 607.115 7.15556 604.392 4.73334C601.305 2.06889 597.372 1.22112 592.893 2.31112Z" fill="#101957"/>
<path d="M289.562 10.91C288.534 11.9394 288.534 97.4439 289.562 98.4733C290.047 98.9578 293.073 99.2 299.125 99.2C305.177 99.2 308.203 98.9578 308.687 98.4733C309.716 97.4439 309.716 11.9394 308.687 10.91C308.203 10.4256 305.177 10.1833 299.125 10.1833C293.073 10.1833 290.047 10.4256 289.562 10.91Z" fill="#101957"/>
<path d="M411.149 20.2961C409.938 32.0439 410.181 31.3778 406.912 31.3778C405.399 31.3778 403.1 31.5594 401.889 31.7411L399.589 32.165V39.1894C399.589 43.9128 399.831 46.5167 400.316 47.0011C400.739 47.425 402.676 47.7278 404.855 47.7278H408.667V62.3822C408.667 79.2167 409.212 84.1217 411.633 89.2083C414.659 95.6878 419.561 99.2606 427.308 100.411C434.389 101.562 447.825 99.1395 447.159 96.8989C447.038 96.3539 446.311 93.205 445.585 89.935C444.133 83.3345 443.406 82.4867 440.078 83.4556C437.052 84.3639 433.905 84.1822 432.392 83.0922C429.426 81.0333 429.245 79.7617 429.245 63.1694V47.7278H436.386C441.107 47.7278 443.77 47.4856 444.254 47.0011C445.283 45.9717 445.283 32.5283 444.254 31.4989C443.77 31.0145 441.107 30.7722 436.386 30.7722H429.245V23.0211C429.245 12.9083 429.547 13.2111 419.44 13.2111H411.875L411.149 20.2961Z" fill="#101957"/>
<path d="M359.948 30.3483C356.317 31.5594 352.383 33.6789 349.539 35.98L347.058 38.0389L346.694 36.2222C346.513 35.2533 346.15 33.5577 345.968 32.5889L345.605 30.7722H338.222C331.806 30.7722 330.656 30.8933 329.809 31.8622C328.901 32.8916 328.78 36.1011 328.78 65.3494C328.78 89.7533 328.962 97.9283 329.507 98.4733C330.535 99.5028 347.602 99.5028 348.631 98.4733C349.176 97.9283 349.357 91.9939 349.357 75.5228V53.2989L351.597 51.3611C355.894 47.5461 361.098 46.1533 364.427 47.9094C365.274 48.2728 366.485 49.605 367.15 50.7555C368.361 52.7539 368.421 53.965 368.603 75.2805C368.724 89.8139 369.027 97.9283 369.45 98.4128C370.419 99.6239 387.062 99.5028 388.03 98.3522C388.575 97.6861 388.696 91.0855 388.575 72.4344C388.333 48.5755 388.272 47.2433 387.001 43.4889C385.186 37.9783 381.918 33.9211 377.56 31.6805C374.473 30.1061 373.324 29.8639 368.179 29.7428C364.548 29.6216 361.461 29.8639 359.948 30.3483Z" fill="#101957"/>
<path d="M487.768 30.4088C484.742 31.4988 481.172 34.0421 478.569 36.8883C477.419 38.2205 476.33 39.2499 476.209 39.2499C476.088 39.2499 475.785 37.3121 475.604 35.011L475.18 30.7721H467.433C462.289 30.7721 459.505 31.0144 459.021 31.4988C457.992 32.5283 457.992 97.4438 459.021 98.4733C460.11 99.5633 476.693 99.5027 477.54 98.4127C478.024 97.8677 478.267 90.9038 478.388 77.9449L478.569 58.2038L480.869 54.8127C482.079 52.9355 484.258 50.6344 485.65 49.726C487.95 48.1516 488.676 48.0305 493.881 48.0305C498.299 48.0305 499.63 47.8488 499.994 47.1221C500.78 45.6688 503.201 32.5283 502.838 31.6805C502.112 29.6821 492.186 28.8344 487.768 30.4088Z" fill="#101957"/>
<path d="M530.738 30.4694C525.231 31.9833 521.055 34.4661 516.697 38.8866C509.677 45.9716 506.711 53.6622 506.711 65.0466C506.711 83.5766 517.182 97.2622 533.522 100.169C554.583 103.923 572.074 87.9366 572.074 64.9861C572.074 48.0305 562.935 35.0111 547.926 30.5299C543.932 29.3794 534.914 29.3188 530.738 30.4694ZM543.871 47.7277C548.35 49.9077 550.831 55.1155 551.315 63.4722C551.678 69.6488 550.468 75.2805 547.987 78.9138C543.69 85.2116 534.793 85.0905 530.496 78.6716C527.47 74.2511 526.381 64.8044 527.954 57.4772C529.77 48.8177 537.032 44.3972 543.871 47.7277Z" fill="#101957"/>
<path d="M638.828 30.4695C631.384 32.4678 625.816 37.1306 623.517 43.2467C622.427 46.1533 622.246 47.6672 622.427 51.6639C622.972 61.7161 627.571 66.1367 645.002 73.2217C650.146 75.3411 653.172 77.7633 653.172 79.7617C653.172 80.4278 652.506 81.6995 651.719 82.6683C650.448 84.1217 649.783 84.3639 646.151 84.5456C641.249 84.7878 636.892 83.4556 631.868 80.0645C629.75 78.6111 628.298 78.0661 627.511 78.3083C626.785 78.49 624.364 81.2756 622.064 84.485L617.828 90.2983L619.643 91.7517C620.612 92.5389 622.79 93.9922 624.485 94.9611C640.341 104.166 661.1 102.046 668.786 90.3589C671.268 86.6045 672.115 83.5767 672.115 78.3083C672.115 67.9533 666.244 62.2611 649.117 55.9028C644.336 54.1467 641.975 52.5722 641.552 50.8767C640.705 47.6067 644.578 44.9422 649.541 45.4267C652.325 45.7295 657.287 47.7883 660.858 50.15L662.795 51.4217L667.334 45.3661C669.876 42.0356 671.933 39.0683 671.933 38.705C671.933 37.9178 665.942 34.0422 662.068 32.3467C660.374 31.5595 657.469 30.6511 655.714 30.2272C651.356 29.3189 642.702 29.44 638.828 30.4695Z" fill="#101957"/>
<path d="M587.265 31.62C586.78 32.165 586.659 41.6117 586.72 65.6522L586.902 98.8972L595.919 99.0789C602.032 99.2 605.179 99.0183 605.723 98.5339C606.873 97.565 606.994 32.6495 605.844 31.4989C604.755 30.4089 588.172 30.4695 587.265 31.62Z" fill="#101957"/>
<path d="M913.29 130.023C908.086 131.718 905.544 135.231 905.544 140.62C905.544 147.039 909.054 150.733 915.53 151.157C920.311 151.459 923.155 150.551 925.455 147.947C930.115 142.618 928.723 133.838 922.853 131.052C920.25 129.841 915.53 129.296 913.29 130.023Z" fill="#101957"/>
<path d="M488.979 131.718C488.737 131.9 488.555 153.094 488.555 178.831C488.555 214.316 488.737 225.701 489.281 226.246C490.31 227.275 506.772 227.275 507.801 226.246C508.345 225.701 508.527 219.766 508.527 203.234V180.95L512.158 178.286C516.334 175.197 519.844 174.349 523.294 175.5C527.531 176.893 527.591 177.196 527.773 202.75C527.894 217.768 528.196 225.64 528.62 226.185C529.588 227.396 546.837 227.275 547.866 226.064C549.076 224.611 548.35 178.164 547.018 173.502C544.961 166.174 541.814 161.936 536.367 159.089C533.946 157.818 532.796 157.636 526.683 157.636C520.329 157.636 519.421 157.757 516.092 159.332C514.155 160.24 511.614 161.693 510.585 162.481C509.495 163.328 508.527 163.994 508.406 163.994C508.285 163.994 508.345 157.031 508.467 148.553C508.588 136.987 508.467 132.869 507.922 132.203C507.317 131.476 505.38 131.294 498.239 131.294C493.397 131.294 489.16 131.476 488.979 131.718Z" fill="#101957"/>
<path d="M719.563 131.718C719.321 131.9 719.14 150.43 719.14 172.775C719.14 208.321 719.261 213.832 720.108 216.678C722.468 224.671 727.673 228.426 736.328 228.426C741.532 228.426 746.979 227.275 746.979 226.124C746.979 225.761 746.435 222.491 745.829 218.858C744.679 212.257 744.195 211.228 741.774 211.228C741.109 211.228 740.261 210.925 739.838 210.501C739.293 209.956 739.112 200.388 739.112 171.261C739.112 142.134 738.93 132.566 738.385 132.021C737.599 131.234 720.29 130.931 719.563 131.718Z" fill="#101957"/>
<path d="M282.3 138.682C281.816 139.167 281.574 141.77 281.574 146.433C281.574 156.001 280.848 155.517 294.767 155.517H305.782V190.518C305.782 216.92 305.964 225.701 306.508 226.246C307.537 227.275 324.604 227.275 325.633 226.246C326.178 225.701 326.359 216.92 326.359 190.518V155.517H337.798C346.815 155.517 349.357 155.335 349.902 154.669C350.386 154.124 350.568 151.278 350.447 146.07L350.265 138.258L316.676 138.077C291.015 137.955 282.845 138.137 282.3 138.682Z" fill="#101957"/>
<path d="M373.929 157.999C369.874 158.968 363.095 162.965 359.646 166.417C356.075 169.989 352.504 176.166 350.931 181.556C349.418 186.582 349.115 194.878 350.204 200.812C352.625 214.437 361.945 224.55 374.776 227.638C379.315 228.728 388.151 228.607 392.932 227.336C397.29 226.246 404.613 222.915 406.67 221.159L408.062 220.008L404.794 214.256C401.042 207.594 400.8 207.473 394.143 210.319C389.664 212.318 383.43 212.681 379.376 211.288C376.289 210.198 372.416 206.686 371.084 203.658C368.845 198.814 367.513 199.117 389.543 199.117H409.212L409.636 196.331C410.241 192.274 409.515 180.526 408.486 177.256C405.278 167.264 398.682 160.603 389.664 158.181C386.214 157.273 377.56 157.152 373.929 157.999ZM386.88 174.773C389.119 175.984 391.298 179.375 392.024 182.585L392.448 184.583H380.828H369.269L369.692 183.191C370.782 179.557 374.231 175.56 377.197 174.349C379.739 173.38 384.58 173.562 386.88 174.773Z" fill="#101957"/>
<path d="M445.343 158.302C434.813 160.846 425.674 169.323 421.982 179.921C420.166 185.068 419.682 196.452 420.953 202.568C423.495 214.437 431.544 223.581 442.499 227.033C447.34 228.547 456.358 228.789 461.321 227.638C465.618 226.548 471.67 223.642 474.454 221.219L476.693 219.282L472.941 213.226C470.883 209.835 468.644 206.989 468.038 206.807C467.433 206.686 465.436 207.473 463.499 208.684C460.836 210.38 459.202 210.925 456.479 211.107C447.401 211.773 441.53 205.596 440.865 194.636C440.32 185.916 442.983 179.497 448.551 176.227C450.79 174.894 452.061 174.592 455.329 174.592C458.658 174.592 459.687 174.834 461.805 176.227C465.86 178.891 466.525 178.588 471.307 172.048C473.667 168.839 475.604 165.993 475.725 165.811C476.088 164.963 468.281 160.119 464.468 158.787C459.687 157.091 451.214 156.909 445.343 158.302Z" fill="#101957"/>
<path d="M596.585 158.121C593.135 159.271 589.625 161.209 586.417 163.631L583.633 165.751L583.27 162.904C583.028 161.33 582.786 159.695 582.665 159.271C582.483 158.726 580.365 158.544 574.918 158.544C568.443 158.544 567.293 158.666 566.445 159.634C565.538 160.664 565.417 163.873 565.417 193.122C565.417 217.526 565.598 225.701 566.143 226.246C567.172 227.275 584.238 227.275 585.267 226.246C585.812 225.701 585.994 219.766 585.994 203.234V180.95L589.02 178.588C592.651 175.682 595.616 174.652 598.824 175.076C601.911 175.5 603.847 177.317 604.695 180.647C605.118 182.343 605.36 191.063 605.36 204.385C605.36 220.008 605.542 225.701 606.087 226.246C607.115 227.275 623.577 227.275 624.606 226.246C625.756 225.095 625.574 178.831 624.424 173.804C622.73 166.719 619.704 162.359 614.317 159.453C611.473 157.878 610.444 157.636 605.058 157.515C601.245 157.394 598.098 157.636 596.585 158.121Z" fill="#101957"/>
<path d="M663.279 158.242C654.624 160.603 646.999 167.083 642.944 175.439C637.255 187.187 638.163 203.719 644.941 214.013C654.14 227.881 672.054 232.422 687.185 224.792C688.758 224.005 691.845 221.643 694.023 219.645C705.038 209.29 707.883 189.791 700.56 174.894C696.686 166.901 688.819 160.482 680.104 158.181C676.291 157.152 667.092 157.212 663.279 158.242ZM676.533 175.5C677.985 176.227 679.74 177.741 680.648 179.133C686.277 187.611 684.582 205.233 677.683 209.774C676.896 210.319 675.141 210.864 673.809 211.046C665.276 212.197 660.495 206.504 659.95 194.514C659.527 184.704 662.129 177.801 667.273 175.439C670.541 173.986 673.386 173.986 676.533 175.5Z" fill="#101957"/>
<path d="M778.631 158.242C769.735 160.664 762.109 167.204 758.115 175.803C755.573 181.374 754.665 185.976 754.726 193.364C754.786 209.653 762.896 221.946 776.876 226.851C782.565 228.849 791.341 228.971 797.272 227.033C805.442 224.429 812.463 218.252 816.215 210.319C819.18 204.143 819.907 200.449 819.846 192.153C819.786 185.916 819.543 184.159 818.151 180.042C814.278 168.778 806.289 161.027 795.577 158.242C791.28 157.091 782.807 157.152 778.631 158.242ZM790.978 174.955C799.087 177.983 802.235 193.969 796.848 204.991C796.001 206.747 794.488 208.745 793.459 209.472C791.522 210.864 786.862 211.652 784.26 210.986C781.96 210.441 778.389 206.989 777.118 204.203C773.608 196.21 775 182.706 779.842 177.377C782.444 174.592 787.225 173.502 790.978 174.955Z" fill="#101957"/>
<path d="M851.014 158.181C843.752 160.24 837.942 164.721 834.734 170.777C832.858 174.228 832.616 175.137 832.435 180.647C832.132 187.732 833.221 191.366 837.034 196.452L839.394 199.48L837.639 201.599C834.795 204.991 833.524 208.2 833.524 212.136C833.524 215.891 834.976 219.887 837.095 221.764C838.184 222.794 838.184 222.915 835.521 225.337C831.527 229.031 830.256 231.877 830.256 236.964C830.256 241.99 831.527 244.957 835.279 248.348C838.426 251.194 840.544 252.224 846.052 253.677C851.922 255.131 864.692 255.252 871.531 253.859C877.946 252.587 885.632 248.772 889.324 245.078C893.682 240.718 895.497 236.358 895.497 230.303C895.558 226.064 895.316 225.034 893.742 222.188C892.471 219.948 891.019 218.313 888.9 216.92C884.059 213.711 880.246 212.984 865.539 212.56C851.196 212.076 850.47 211.894 850.47 208.503C850.47 205.778 851.499 205.112 854.404 205.778C857.974 206.626 863.603 206.504 867.9 205.475C875.767 203.598 881.335 199.419 884.301 193.122C885.693 190.154 885.874 188.943 885.874 183.675C885.874 180.344 885.693 176.893 885.39 175.924L884.967 174.289H889.082C891.503 174.289 893.5 173.986 893.924 173.562C894.953 172.533 894.892 160.119 893.863 159.271C893.44 158.908 887.69 158.484 879.822 158.302C872.499 158.121 863.663 157.818 860.153 157.697C855.977 157.515 852.83 157.697 851.014 158.181ZM863.361 172.775C865.963 174.047 867.355 176.106 868.081 179.86C868.989 184.281 867.416 189.125 864.45 191.063C860.456 193.727 854.767 192.334 852.467 188.096C850.893 185.068 851.014 178.831 852.77 176.045C855.069 172.23 859.487 170.898 863.361 172.775ZM865.418 229.334C869.11 229.394 872.862 229.637 873.77 230C875.465 230.606 876.494 232.604 876.01 234.36C875.525 236.358 872.197 238.962 868.868 239.992C864.147 241.445 854.827 241.082 851.317 239.204C847.323 237.146 846.475 233.391 849.199 229.939C850.349 228.486 850.591 228.426 854.525 228.849C856.764 229.152 861.666 229.334 865.418 229.334Z" fill="#101957"/>
<path d="M963.644 158.726C953.113 162.299 944.822 171.624 942.159 182.888C941.009 187.793 941.009 198.329 942.159 203.234C946.879 223.339 967.457 233.452 988.578 226.124C993.057 224.55 999.351 221.038 999.351 220.129C999.351 219.827 997.959 216.981 996.204 213.832C992.573 207.292 992.936 207.413 986.036 210.38C978.29 213.65 968.606 212.076 964.673 206.868C963.099 204.809 961.223 200.933 961.223 199.722C961.223 199.298 967.759 199.117 980.892 199.117H1000.56L1000.99 197.421C1001.83 194.454 1001.41 182.706 1000.38 178.588C997.535 167.87 990.152 160.179 980.529 157.999C975.808 156.909 968.001 157.212 963.644 158.726ZM979.258 175.258C981.134 176.651 983.616 181.132 983.616 183.191V184.583H972.359H961.102L961.465 182.888C962.191 180.042 965.036 176.469 967.88 175.016C971.269 173.259 976.656 173.381 979.258 175.258Z" fill="#101957"/>
<path d="M1029.79 158.242C1022.95 160.119 1018.29 163.631 1015.39 168.96C1013.94 171.624 1013.57 173.078 1013.39 177.438C1013.15 182.04 1013.33 183.069 1014.66 185.916C1017.39 191.971 1022.41 195.544 1035.97 200.994C1041.11 203.113 1044.14 205.536 1044.14 207.534C1044.14 208.2 1043.47 209.472 1042.68 210.38C1041.47 211.833 1040.75 212.076 1037.3 212.318C1032.46 212.621 1028.46 211.409 1023.14 208.079C1020.78 206.565 1018.96 205.838 1018.29 206.081C1017.69 206.262 1015.33 209.048 1013.03 212.257L1008.85 218.071L1010.91 219.766C1013.94 222.249 1022.05 226.245 1026.59 227.396C1031.12 228.547 1040.5 228.668 1044.98 227.638C1052.12 225.943 1058.36 221.401 1061.08 215.769C1063.26 211.349 1063.56 202.992 1061.69 198.632C1059.15 192.758 1053.94 189.064 1041.41 184.281C1035.48 181.979 1032.03 179.557 1032.03 177.68C1032.03 177.196 1032.64 176.045 1033.42 175.137C1036.27 171.806 1043.77 172.654 1050.25 177.074C1051.94 178.225 1053.46 179.133 1053.58 179.133C1053.94 179.133 1062.9 166.901 1062.9 166.417C1062.9 165.508 1054.91 160.785 1050.91 159.271C1045.77 157.333 1034.82 156.788 1029.79 158.242Z" fill="#101957"/>
<path d="M907.48 159.271C906.452 160.3 906.452 225.216 907.48 226.246C908.509 227.275 924.971 227.275 926 226.246C927.029 225.216 927.029 160.3 926 159.271C925.515 158.787 922.55 158.544 916.74 158.544C910.93 158.544 907.965 158.787 907.48 159.271Z" fill="#101957"/>
<path d="M25.5708 0.615562C22.9684 0.918343 20.1844 1.76612 17.0979 3.28001C2.45185 10.5467 -3.53972 27.805 3.60174 42.2778C14.3744 64.2595 45.2401 64.2595 56.0128 42.2778C63.1542 27.805 57.1627 10.5467 42.5166 3.28001C37.3118 0.736675 31.986 -0.111103 25.5708 0.615562ZM37.0698 13.2717C40.701 14.9067 44.1507 18.2978 45.9058 21.9917C47.0557 24.3533 47.3583 26.0489 47.3583 29.5611C47.3583 34.89 46.0268 38.3417 42.6377 41.9145C39.188 45.4872 35.2541 47.1222 29.8073 47.1222C24.3604 47.1222 20.4265 45.4872 16.9768 41.9145C13.5877 38.3417 12.2562 34.89 12.2562 29.5611C12.2562 24.1111 13.8903 20.175 17.461 16.7233C21.0317 13.3322 24.4814 12 29.8073 12C33.0754 12 35.1331 12.3633 37.0698 13.2717Z" fill="#AA7933"/>
<path d="M113.326 0.615479C110.724 0.918259 107.94 1.76604 104.853 3.27992C90.2676 10.5466 84.2155 27.8655 91.2964 42.2172L93.4752 46.6983L69.0248 71.1627L44.5743 95.6272L41.1852 94.0527C34.0437 90.7827 24.6025 91.0249 17.0979 94.7794C2.45185 101.985 -3.53972 119.244 3.60174 133.717C10.7432 148.31 27.8101 154.305 42.3956 147.342C56.618 140.559 63.0332 123.119 56.4364 108.949C55.4076 106.769 54.0761 104.468 53.5314 103.863C52.6236 102.833 53.834 101.501 76.832 78.4899L101.161 54.1466L105.337 56.0844C119.802 62.7455 136.99 56.5688 143.889 42.2172C145.039 39.7344 146.007 37.3122 146.007 36.7066C146.007 35.6772 147.036 35.6166 161.44 35.6166C176.086 35.6166 176.873 35.6772 176.873 36.7672C176.873 37.3727 177.902 39.916 179.112 42.3383C190.006 64.2594 220.751 64.1988 231.523 42.2777C238.665 27.8049 232.673 10.5466 217.967 3.27992C207.436 -1.92786 194.484 -0.0506287 185.588 8.00327C182.259 11.031 178.931 16.1177 177.418 20.7199L176.328 23.8083H161.44H146.552L145.463 20.7199C142.86 12.9083 137.534 6.91325 130.03 3.21938C125.067 0.736588 119.62 -0.111191 113.326 0.615479ZM125.128 13.4533C138.745 19.8721 138.745 39.2499 125.128 45.6688C120.467 47.9094 114.113 47.7277 109.271 45.3055C103.098 42.2172 100.072 37.0094 100.011 29.561C100.011 24.111 101.645 20.1749 105.216 16.7233C108.787 13.3322 112.237 11.9999 117.562 11.9999C121.073 11.9999 122.767 12.3027 125.128 13.4533ZM212.58 13.2716C216.211 14.9066 219.661 18.2977 221.416 21.9916C222.566 24.3533 222.869 26.0488 222.869 29.561C222.869 34.8899 221.537 38.3416 218.148 41.9144C214.698 45.4872 210.765 47.1222 205.318 47.1222C199.871 47.1222 195.937 45.4872 192.487 41.9144C184.075 33.0733 186.738 18.661 197.753 13.4533C201.807 11.5155 208.586 11.4549 212.58 13.2716ZM37.9776 105.134C44.0902 108.041 47.3583 113.491 47.3583 121C47.3583 126.329 46.0268 129.78 42.6377 133.353C39.188 136.926 35.2541 138.561 29.8073 138.561C24.3604 138.561 20.4265 136.926 16.9768 133.353C13.5877 129.78 12.2562 126.329 12.2562 121C12.2562 115.55 13.8903 111.614 17.461 108.162C21.0317 104.771 24.4814 103.439 29.8073 103.439C33.5596 103.439 34.9515 103.742 37.9776 105.134Z" fill="#AA7933"/>
<path d="M113.326 92.0545C110.724 92.3572 107.94 93.205 104.853 94.7189C86.6969 103.742 82.7631 127.419 97.046 141.771C108.303 153.034 126.822 153.034 138.079 141.771C152.362 127.419 148.428 103.742 130.272 94.7189C125.067 92.1756 119.741 91.3278 113.326 92.0545ZM124.825 104.711C128.456 106.346 131.906 109.737 133.661 113.431C134.811 115.792 135.114 117.488 135.114 121C135.114 126.329 133.782 129.781 130.393 133.353C126.943 136.926 123.009 138.561 117.563 138.561C112.116 138.561 108.182 136.926 104.732 133.353C101.343 129.781 100.012 126.329 100.012 121C100.012 115.55 101.646 111.614 105.216 108.162C108.787 104.771 112.237 103.439 117.563 103.439C120.831 103.439 122.888 103.802 124.825 104.711Z" fill="#AA7933"/>
<path d="M201.081 92.0544C198.479 92.3572 195.695 93.205 192.608 94.7189C174.573 103.681 170.518 127.056 184.559 141.528L187.767 144.859L163.74 168.96L139.713 193.001L136.99 190.518C125.612 180.405 107.758 180.95 97.0459 191.668C93.5962 195.12 89.1177 202.811 89.1177 205.233C89.1177 206.323 88.3309 206.383 73.6849 206.383C59.0388 206.383 58.2521 206.323 58.2521 205.233C58.2521 204.627 57.2232 202.084 56.0128 199.662C48.7503 185.068 31.5018 179.073 17.0979 186.218C2.45185 193.424 -3.53972 210.683 3.60174 225.156C12.4983 243.322 36.2225 247.319 50.4449 233.028C53.8946 229.637 56.618 225.095 57.9494 220.614L58.6757 218.192H73.6849H88.694L89.4203 220.614C91.7201 228.365 97.409 235.026 104.853 238.659C120.952 246.592 140.742 237.812 145.765 220.432C146.855 216.799 146.976 208.382 146.007 205.172L145.402 203.053L172.031 176.408L198.721 149.703L202.05 150.067C214.335 151.399 226.016 144.919 231.523 133.717C238.665 119.244 232.673 101.986 218.027 94.7189C212.822 92.1756 207.496 91.3278 201.081 92.0544ZM212.58 104.711C216.211 106.346 219.661 109.737 221.416 113.431C223.353 117.488 223.413 124.27 221.598 128.267C218.693 134.686 212.701 138.561 205.62 138.561C199.75 138.561 197.45 137.774 193.758 134.443C189.401 130.568 187.767 126.874 187.767 121C187.767 115.55 189.401 111.614 192.971 108.162C196.542 104.771 199.992 103.439 205.318 103.439C208.586 103.439 210.644 103.802 212.58 104.711ZM37.3724 196.331C48.3872 201.539 51.0501 215.951 42.6377 224.792C39.188 228.365 35.2541 230 29.8073 230C24.3604 230 20.4265 228.365 16.9768 224.792C13.5877 221.219 12.2562 217.768 12.2562 212.439C12.2562 206.989 13.8903 203.053 17.461 199.601C21.0317 196.21 24.4814 194.878 29.8073 194.878C33.3175 194.878 35.0121 195.181 37.3724 196.331ZM125.128 196.331C129.001 198.148 132.995 202.326 134.206 205.717C135.537 209.532 135.356 216.314 133.843 219.706C132.209 223.339 128.819 226.791 125.128 228.547C122.767 229.637 121.073 230 117.562 230C112.116 230 108.182 228.365 104.732 224.792C96.3197 215.951 98.9826 201.539 109.997 196.331C114.234 194.333 120.891 194.333 125.128 196.331Z" fill="#AA7933"/>
<path d="M201.081 183.493C198.479 183.796 195.695 184.644 192.608 186.158C174.452 195.181 170.518 218.858 184.801 233.209C196.058 244.473 214.577 244.473 225.834 233.209C240.117 218.858 236.183 195.181 218.027 186.158C212.822 183.614 207.496 182.767 201.081 183.493ZM212.58 196.149C216.211 197.784 219.661 201.176 221.416 204.869C222.566 207.231 222.869 208.927 222.869 212.439C222.869 217.768 221.537 221.219 218.148 224.792C214.698 228.365 210.765 230 205.318 230C199.871 230 195.937 228.365 192.487 224.792C189.098 221.219 187.767 217.768 187.767 212.439C187.767 206.989 189.401 203.053 192.971 199.601C196.542 196.21 199.992 194.878 205.318 194.878C208.586 194.878 210.644 195.241 212.58 196.149Z" fill="#AA7933"/>
</svg>
