<svg width="26" height="22" viewBox="0 0 26 22" fill="none" xmlns="http://www.w3.org/2000/svg">
<path d="M21.8002 0.399994C22.8611 0.399994 23.8785 0.821421 24.6286 1.57157C25.3788 2.32171 25.8002 3.33913 25.8002 4.39999V17.2C25.8002 18.2609 25.3788 19.2783 24.6286 20.0284C23.8785 20.7786 22.8611 21.2 21.8002 21.2H4.20019C3.13933 21.2 2.12191 20.7786 1.37177 20.0284C0.621623 19.2783 0.200195 18.2609 0.200195 17.2V4.39999C0.200195 3.33913 0.621623 2.32171 1.37177 1.57157C2.12191 0.821421 3.13933 0.399994 4.20019 0.399994H21.8002ZM24.2002 6.7376L13.4066 13.0896C13.3045 13.1495 13.1905 13.186 13.0726 13.1966C12.9548 13.2071 12.836 13.1913 12.725 13.1504L12.5938 13.0896L1.8002 6.74079V17.2C1.8002 17.8365 2.05305 18.447 2.50314 18.8971C2.95323 19.3471 3.56368 19.6 4.20019 19.6H21.8002C22.4367 19.6 23.0472 19.3471 23.4972 18.8971C23.9473 18.447 24.2002 17.8365 24.2002 17.2V6.7376ZM21.8002 1.99999H4.20019C3.56368 1.99999 2.95323 2.25285 2.50314 2.70294C2.05305 3.15303 1.8002 3.76347 1.8002 4.39999V4.88319L13.0002 11.472L24.2002 4.87999V4.39999C24.2002 3.76347 23.9473 3.15303 23.4972 2.70294C23.0472 2.25285 22.4367 1.99999 21.8002 1.99999Z" fill="black"/>
</svg>
