<svg width="20" height="22" viewBox="0 0 20 22" fill="none" xmlns="http://www.w3.org/2000/svg">
<path d="M10 9.58334C8.87283 9.58334 7.79183 9.13558 6.9948 8.33855C6.19777 7.54152 5.75 6.46051 5.75 5.33334C5.75 4.20617 6.19777 3.12517 6.9948 2.32814C7.79183 1.53111 8.87283 1.08334 10 1.08334C11.1272 1.08334 12.2082 1.53111 13.0052 2.32814C13.8022 3.12517 14.25 4.20617 14.25 5.33334C14.25 6.46051 13.8022 7.54152 13.0052 8.33855C12.2082 9.13558 11.1272 9.58334 10 9.58334Z" stroke="black" stroke-width="2" stroke-linecap="round"/>
<path d="M1.5 20.9167V19.5C1.5 17.9971 2.09702 16.5558 3.15973 15.4931C4.22243 14.4304 5.66377 13.8333 7.16667 13.8333H12.8333C14.3362 13.8333 15.7776 14.4304 16.8403 15.4931C17.903 16.5558 18.5 17.9971 18.5 19.5V20.9167" stroke="black" stroke-width="2" stroke-linecap="round"/>
</svg>
