<svg width="34" height="34" viewBox="0 0 34 34" fill="none" xmlns="http://www.w3.org/2000/svg">
<path d="M23.6111 3.77778H10.3889C9.88792 3.77778 9.40748 3.97679 9.05324 4.33102C8.69901 4.68526 8.5 5.1657 8.5 5.66667V28.3333C8.5 28.8343 8.69901 29.3147 9.05324 29.669C9.40748 30.0232 9.88792 30.2222 10.3889 30.2222H23.6111C24.1121 30.2222 24.5925 30.0232 24.9468 29.669C25.301 29.3147 25.5 28.8343 25.5 28.3333V5.66667C25.5 5.1657 25.301 4.68526 24.9468 4.33102C24.5925 3.97679 24.1121 3.77778 23.6111 3.77778ZM10.3889 5.66667H23.6111V22.6667H10.3889V5.66667ZM10.3889 28.3333V24.5556H23.6111V28.3333H10.3889Z" fill="black"/>
<path d="M16.0557 25.5H17.9446V27.3889H16.0557V25.5Z" fill="black"/>
</svg>
